<?xml version="1.0" encoding="utf-8"?>
<!-- Generator: Adobe Illustrator 28.0.0, SVG Export Plug-In . SVG Version: 6.00 Build 0)  -->
<svg version="1.1" id="Calque_1" xmlns="http://www.w3.org/2000/svg" xmlns:xlink="http://www.w3.org/1999/xlink" x="0px" y="0px"
	 viewBox="0 0 576 512" style="enable-background:new 0 0 576 512;" xml:space="preserve">
<style type="text/css">
	.st0{fill:#005834;}
	.st1{fill:#00BC78;}
</style>
<path class="st0" d="M549,48.2c-87-32.3-174-10.1-261,12.1c-79.8,20.3-159.6,40.6-239.3,18.8C25.6,72.8,0,88.6,0,112.5v309.8
	c0,18,10.1,35,27,41.3c87,32.5,174,10.3,261-11.9c79.8-20.3,159.6-40.7,239.3-18.9c23,6.3,48.7-9.5,48.7-33.4V89.5
	C576,71.5,565.9,54.5,549,48.2z"/>
<path class="st1" d="M448,96.5c-44.8,2-107.3,7.9-168,24.4c-57.4,15.6-112.2,21.3-152.2,23.1h0.3c0,35.3-28.7,64-64,64v144
	c35.3,0,64,28.7,64,64c44.4-1.8,106.4-7.7,167.7-24.8c57.9-16.1,112.5-21.9,152.3-23.6c0.2-35.1,28.8-63.6,64-63.6V160
	C476.9,160,448.3,131.6,448,96.5z M288,352c-44.2,0-80-43-80-96s35.8-96,80-96s80,43,80,96S332.2,352,288,352z"/>
</svg>
